<svg width="800" height="600" viewBox="0 0 800 600" fill="none" xmlns="http://www.w3.org/2000/svg">
<rect width="800" height="600" fill="white"/>
<path d="M298.228 387.926H306.388L317.728 411.146L329.068 387.926H337.168V426.566H329.068V401.426L320.068 419.906H315.388L306.328 401.426V426.566H298.228V387.926ZM352.329 427.166C349.449 427.166 347.029 426.406 345.069 424.886C343.149 423.326 342.189 421.146 342.189 418.346C342.189 415.506 343.189 413.266 345.189 411.626C347.229 409.946 350.149 409.106 353.949 409.106H362.349V408.326C362.349 407.126 362.129 406.186 361.689 405.506C361.289 404.826 360.549 404.326 359.469 404.006C358.429 403.686 356.929 403.526 354.969 403.526C351.729 403.526 348.609 404.026 345.609 405.026V399.326C347.009 398.766 348.649 398.326 350.529 398.006C352.449 397.686 354.489 397.526 356.649 397.526C365.609 397.526 370.089 401.186 370.089 408.506V426.566H363.069L362.649 423.986C360.329 426.106 356.889 427.166 352.329 427.166ZM354.549 421.826C356.269 421.826 357.789 421.546 359.109 420.986C360.469 420.386 361.549 419.606 362.349 418.646V414.146H354.129C350.969 414.146 349.389 415.446 349.389 418.046C349.389 420.566 351.109 421.826 354.549 421.826ZM388.012 437.126C385.852 437.126 383.652 436.986 381.412 436.706C379.212 436.426 377.372 436.026 375.892 435.506V429.446C377.452 429.966 379.292 430.366 381.412 430.646C383.572 430.966 385.632 431.126 387.592 431.126C390.432 431.126 392.452 430.966 393.652 430.646C394.852 430.366 395.452 429.846 395.452 429.086C395.452 428.446 395.172 428.006 394.612 427.766C394.052 427.526 392.932 427.406 391.252 427.406H383.512C380.992 427.406 379.092 426.926 377.812 425.966C376.532 425.006 375.892 423.606 375.892 421.766C375.892 420.566 376.212 419.506 376.852 418.586C377.532 417.626 378.552 416.866 379.912 416.306C376.672 414.666 375.052 411.906 375.052 408.026C375.052 404.426 376.172 401.786 378.412 400.106C380.692 398.386 384.092 397.526 388.612 397.526C389.452 397.526 390.412 397.586 391.492 397.706C392.572 397.826 393.452 397.966 394.132 398.126H404.812L404.632 403.226H400.132C401.372 404.386 401.992 406.006 401.992 408.086C401.992 411.086 401.052 413.446 399.172 415.166C397.292 416.846 394.592 417.686 391.072 417.686C389.992 417.686 388.792 417.586 387.472 417.386C386.192 417.546 385.152 417.846 384.352 418.286C383.592 418.686 383.212 419.206 383.212 419.846C383.212 420.366 383.412 420.726 383.812 420.926C384.212 421.126 384.832 421.226 385.672 421.226H393.712C396.592 421.226 398.812 421.886 400.372 423.206C401.932 424.526 402.712 426.406 402.712 428.846C402.712 434.366 397.812 437.126 388.012 437.126ZM388.672 413.126C391.032 413.126 392.692 412.726 393.652 411.926C394.612 411.086 395.092 409.686 395.092 407.726C395.092 405.726 394.612 404.306 393.652 403.466C392.692 402.586 391.032 402.146 388.672 402.146C386.392 402.146 384.752 402.586 383.752 403.466C382.752 404.306 382.252 405.726 382.252 407.726C382.252 409.646 382.732 411.026 383.692 411.866C384.652 412.706 386.312 413.126 388.672 413.126ZM409.422 386.546H418.242V392.906H409.422V386.546ZM410.082 404.126H405.822L406.542 398.126H418.182V426.566H410.082V404.126ZM439.019 427.166C433.939 427.166 430.039 425.906 427.319 423.386C424.639 420.866 423.299 417.186 423.299 412.346C423.299 407.466 424.719 403.786 427.559 401.306C430.399 398.786 434.299 397.526 439.259 397.526C441.259 397.526 442.979 397.666 444.419 397.946C445.859 398.226 447.259 398.686 448.619 399.326V405.146C446.459 404.106 443.879 403.586 440.879 403.586C437.719 403.586 435.359 404.246 433.799 405.566C432.279 406.886 431.519 409.146 431.519 412.346C431.519 415.426 432.239 417.666 433.679 419.066C435.159 420.426 437.539 421.106 440.819 421.106C443.779 421.106 446.399 420.546 448.679 419.426V425.426C445.999 426.586 442.779 427.166 439.019 427.166ZM477.625 394.166H465.745V387.926H497.545V394.166H485.725V426.566H477.625V394.166ZM503.438 427.166C500.558 427.166 498.138 426.406 496.178 424.886C494.258 423.326 493.298 421.146 493.298 418.346C493.298 415.506 494.298 413.266 496.298 411.626C498.338 409.946 501.258 409.106 505.058 409.106H513.458V408.326C513.458 407.126 513.238 406.186 512.798 405.506C512.398 404.826 511.658 404.326 510.578 404.006C509.538 403.686 508.038 403.526 506.078 403.526C502.838 403.526 499.718 404.026 496.718 405.026V399.326C498.118 398.766 499.758 398.326 501.638 398.006C503.558 397.686 505.598 397.526 507.758 397.526C516.718 397.526 521.198 401.186 521.198 408.506V426.566H514.178L513.758 423.986C511.438 426.106 507.998 427.166 503.438 427.166ZM505.658 421.826C507.378 421.826 508.898 421.546 510.218 420.986C511.578 420.386 512.658 419.606 513.458 418.646V414.146H505.238C502.078 414.146 500.498 415.446 500.498 418.046C500.498 420.566 502.218 421.826 505.658 421.826ZM535.041 427.166C532.281 427.166 530.261 426.526 528.981 425.246C527.741 423.966 527.121 421.926 527.121 419.126V386.126H535.221V418.466C535.221 419.466 535.401 420.166 535.761 420.566C536.161 420.926 536.761 421.106 537.561 421.106C538.601 421.106 539.541 420.966 540.381 420.686V426.266C539.541 426.586 538.721 426.806 537.921 426.926C537.121 427.086 536.161 427.166 535.041 427.166ZM556.516 427.166C551.476 427.166 547.536 425.926 544.696 423.446C541.896 420.926 540.496 417.206 540.496 412.286C540.496 407.646 541.716 404.026 544.156 401.426C546.636 398.826 550.236 397.526 554.956 397.526C559.276 397.526 562.616 398.666 564.976 400.946C567.376 403.186 568.576 406.206 568.576 410.006V415.166H547.996C548.396 417.366 549.396 418.906 550.996 419.786C552.636 420.666 555.036 421.106 558.196 421.106C559.716 421.106 561.256 420.966 562.816 420.686C564.416 420.406 565.776 420.046 566.896 419.606V425.366C564.256 426.566 560.796 427.166 556.516 427.166ZM561.496 410.186V408.626C561.496 405.106 559.396 403.346 555.196 403.346C552.556 403.346 550.696 403.886 549.616 404.966C548.536 406.006 547.996 407.746 547.996 410.186H561.496Z" fill="#292152"/>
<path d="M451.06 364.302L384.819 249.787L467.21 235.385L528.003 340.482C530.649 345.055 527.937 350.864 522.733 351.773L451.06 364.302Z" fill="url(#paint0_linear_5_12987)"/>
<path d="M451.06 364.303L384.819 249.787L452.751 195.639C457.562 191.804 464.656 193.145 467.737 198.469L524.853 297.204C526.737 300.462 525.954 304.607 523.012 306.953L451.06 364.303Z" fill="url(#paint1_linear_5_12987)"/>
<path d="M446.756 366.56L380.514 252.045L277.037 240.839C272.584 240.357 269.473 245.137 271.715 249.013L329.535 348.967C331.434 352.252 334.788 354.434 338.56 354.842L446.756 366.56Z" fill="url(#paint2_linear_5_12987)"/>
<path d="M446.756 366.56L380.514 252.045L306.655 228.913C297.9 226.171 290.34 235.617 294.934 243.558L348.24 335.706L446.756 366.56Z" fill="url(#paint3_linear_5_12987)"/>
<path d="M449.634 368.24L384.147 252.045" stroke="url(#paint4_linear_5_12987)" stroke-width="3" stroke-miterlimit="10" stroke-linecap="round" stroke-linejoin="round"/>
<path d="M451.06 364.303L384.819 249.787L413.286 173.05C414.57 169.589 419.305 169.188 421.153 172.383L478.172 270.955C481.073 275.97 481.586 282.017 479.571 287.45L451.06 364.303Z" fill="url(#paint5_linear_5_12987)"/>
<path d="M389.121 186.148L384.01 176.829L378.898 186.148L368.79 190.86L378.898 195.57L384.01 204.889L389.121 195.57L399.229 190.86L389.121 186.148Z" fill="url(#paint6_linear_5_12987)"/>
<path d="M350.722 205.687L346.238 197.508L341.751 205.687L332.88 209.822L341.751 213.957L346.238 222.135L350.722 213.957L359.595 209.822L350.722 205.687Z" fill="url(#paint7_linear_5_12987)"/>
<path d="M416.462 213.989L411.975 205.809L407.491 213.989L398.618 218.124L407.491 222.259L411.975 230.436L416.462 222.259L425.333 218.124L416.462 213.989Z" fill="url(#paint8_linear_5_12987)"/>
<defs>
<linearGradient id="paint0_linear_5_12987" x1="456.925" y1="235.385" x2="456.925" y2="364.302" gradientUnits="userSpaceOnUse">
<stop offset="0.65" stop-color="#6700C8"/>
<stop offset="1" stop-color="#320062"/>
</linearGradient>
<linearGradient id="paint1_linear_5_12987" x1="455.347" y1="193.443" x2="455.347" y2="364.303" gradientUnits="userSpaceOnUse">
<stop offset="0.65" stop-color="#FEC52F"/>
<stop offset="1" stop-color="#E2A914"/>
</linearGradient>
<linearGradient id="paint2_linear_5_12987" x1="358.862" y1="240.806" x2="358.862" y2="366.56" gradientUnits="userSpaceOnUse">
<stop offset="0.65" stop-color="#6700C8"/>
<stop offset="1" stop-color="#320062"/>
</linearGradient>
<linearGradient id="paint3_linear_5_12987" x1="370.151" y1="228.429" x2="370.151" y2="366.56" gradientUnits="userSpaceOnUse">
<stop offset="0.65" stop-color="#F74EC1"/>
<stop offset="1" stop-color="#912E71"/>
</linearGradient>
<linearGradient id="paint4_linear_5_12987" x1="416.89" y1="252.045" x2="416.89" y2="368.24" gradientUnits="userSpaceOnUse">
<stop offset="0.65" stop-color="#720CC8"/>
<stop offset="1" stop-color="#380662"/>
</linearGradient>
<linearGradient id="paint5_linear_5_12987" x1="432.802" y1="170.204" x2="432.802" y2="364.303" gradientUnits="userSpaceOnUse">
<stop offset="0.65" stop-color="#0CB1EB"/>
<stop offset="1" stop-color="#076485"/>
</linearGradient>
<linearGradient id="paint6_linear_5_12987" x1="384.01" y1="176.829" x2="384.01" y2="204.889" gradientUnits="userSpaceOnUse">
<stop offset="0.65" stop-color="#FEC52F"/>
<stop offset="1" stop-color="#E2A914"/>
</linearGradient>
<linearGradient id="paint7_linear_5_12987" x1="346.238" y1="197.508" x2="346.238" y2="222.135" gradientUnits="userSpaceOnUse">
<stop offset="0.65" stop-color="#FEC52F"/>
<stop offset="1" stop-color="#E2A914"/>
</linearGradient>
<linearGradient id="paint8_linear_5_12987" x1="411.975" y1="205.809" x2="411.975" y2="230.436" gradientUnits="userSpaceOnUse">
<stop offset="0.65" stop-color="#FEC52F"/>
<stop offset="1" stop-color="#E2A914"/>
</linearGradient>
</defs>
</svg>
