<?xml version="1.0" encoding="UTF-8"?>
<svg id="Layer_2" data-name="Layer 2" xmlns="http://www.w3.org/2000/svg" viewBox="0 0 17.44 6.86">
  <defs>
    <style>
      .cls-1 {
        opacity: .65;
      }
    </style>
  </defs>
  <g id="OBJECTS">
    <path class="cls-1" d="M17.15,3.16c-.59.3-1.19.45-1.79.52,0-.03-.01-.06-.02-.08.1.02.21-.01.26-.13.43-1.08-.07-2.21-1.04-2.81C13.19-.2,11.25-.02,9.73.12c-.23.02-.32.39-.06.44.59.1,1.23.2,1.75.53.54.34.77.93,1.2,1.37.64.66,1.54.96,2.4,1.21,0,.02.01.03.02.05-2.17.13-4.36-.88-6.55-1.15-.74-.09-1.46-.12-2.16-.08-.01-.02-.02-.03-.04-.04-.91-.68-2.07-1.15-3.21-.86C1.92,1.87.96,2.97.07,3.7c-.15.12-.05.35.11.4,1.16.41,2.76,1.03,4.02.81,1.21-.21,1.22-1.65,2.31-2.03,1.47,0,2.93.26,4.4.61-1.44.25-2.62,1.8-4.21,1.65-.25-.02-.3.33-.12.44,1.17.74,3.18,1.53,4.58,1.2,1.25-.29,2-1.54,2.22-2.72,1.36.23,2.71.2,3.97-.57.21-.13.03-.44-.19-.33ZM5.08,3.73c-1.13,1.19-2.96.56-4.36.05.6-.53,1.21-1.13,1.88-1.5,1.06-.59,2.13-.31,3.08.26-.88.11-1.74.35-2.59.73-.1.05-.03.22.08.18.88-.31,1.75-.47,2.62-.54-.24.21-.4.5-.69.81ZM9.64,6.24c-.75-.15-1.49-.34-2.17-.67,1.63-.37,2.9-2.19,4.65-1.58.01,0,.03,0,.04,0-.27.28-.56.52-.94.65-.44.16-.86.12-1.31.1-.17-.01-.26.27-.09.34.98.42,2.34-.18,2.74-1.16,0,0,0-.01,0-.02.14.03.27.06.41.09-.35,1.61-1.54,2.59-3.32,2.25ZM13.39,1.2c-.25-.11-.46.25-.21.37.8.38,1.37.99,1.72,1.77-.43-.19-.86-.37-1.25-.62-.63-.39-.94-.91-1.39-1.46-.32-.39-.73-.63-1.17-.8.62-.03,1.24-.02,1.85.08,1.33.21,2.82,1.16,2.31,2.69-.3-.89-.99-1.65-1.86-2.03Z"/>
  </g>
</svg>